<svg width="24" height="24" xmlns="http://www.w3.org/2000/svg">
    <path d="M12 17.371c.884 0 1.6.703 1.6 1.563 0 .831-.668 1.517-1.51 1.564L12 20.5c-.884 0-1.6-.705-1.6-1.566 0-.83.667-1.514 1.509-1.56l.09-.003zm0-4.624.19.003.19.009a6.344 6.344 0 0 1 3.763 1.513l.142.126.082.075L15.23 15.6l-.08-.07-.133-.114a4.745 4.745 0 0 0-2.844-1.08L12 14.332l-.174.003-.173.01a4.736 4.736 0 0 0-2.66 1.065l-.14.12-.082.071-1.138-1.129.083-.076.142-.125a6.346 6.346 0 0 1 3.95-1.522l.192-.003zm0-4.625.236.003.243.008a11.089 11.089 0 0 1 6.948 2.81l.259.237-1.14 1.13-.247-.225a9.454 9.454 0 0 0-6.073-2.373L12 9.71l-.226.002-.225.008a9.45 9.45 0 0 0-5.846 2.365l-.166.15-.082.076-1.14-1.13.254-.233a11.091 11.091 0 0 1 7.187-2.823L12 8.122zM12 3.5l.26.002.261.006a15.828 15.828 0 0 1 10.21 4.133l.269.251-1.14 1.13-.262-.244a14.207 14.207 0 0 0-9.349-3.69l-.25-.002-.249.002-.248.006a14.197 14.197 0 0 0-9.094 3.68l-.268.249L1 7.893l.27-.252A15.832 15.832 0 0 1 11.74 3.502l.26-.002z" fill="#1B75E2" fill-rule="evenodd"/>
</svg>
