<svg width="14" height="14" viewBox="0 0 14 14" xmlns="http://www.w3.org/2000/svg">
    <path d="M8.659 2.444v.938c0 .532.437.965.975.965a.971.971 0 0 0 .976-.965v-.936c.909.023 1.64.691 1.64 1.51v6.625c0 .92-.758 1.669-1.688 1.669h-6.54a1.68 1.68 0 0 1-1.689-1.67V3.957c0-.81.715-1.47 1.61-1.508v.934c0 .532.437.965.975.965a.971.971 0 0 0 .975-.965v-.938h2.766zm2.324 3.1H3.6v4.51c0 .52.428.943.954.943h5.476a.95.95 0 0 0 .953-.942V5.544zM4.918 1.75c.234 0 .424.188.424.42v1.212c0 .232-.19.42-.424.42a.422.422 0 0 1-.425-.42V2.17c0-.232.19-.42.425-.42zm4.716 0c.235 0 .425.188.425.42v1.213c0 .232-.19.42-.425.42a.422.422 0 0 1-.424-.42V2.17c0-.232.19-.42.424-.42z" fill="#FA5851" fill-rule="evenodd"/>
</svg>
