<svg width="24" height="24" xmlns="http://www.w3.org/2000/svg">
    <path d="M7.25 22.957 8 21.913h-.705L.64 14.979c-.655-.683-.655-1.633 0-2.316.635-.663 1.57-.663 2.215.01l2.855 2.98h3.58L7.66 8.848.695 10.858l-.136-.501c-.57-2.15-.35-4.32.615-6.11.83-1.539 2.17-2.718 3.83-3.402C5.005.825 5 .803 5 .783 5 .35 5.335 0 5.75 0c.285 0 .525.167.655.407a8.376 8.376 0 0 1 1.88-.209c3.7 0 6.79 2.291 7.695 5.708l.136.501-7.495 2.165 1.7 7.08h1.864l3.5 3.13H22.5c.83 0 1.5.7 1.5 1.566 0 .699-.445 1.289-1.055 1.487l.805 1.122H24V24H0v-1.043h7.25zM4.015 3.61A6.54 6.54 0 0 1 4.24 2.4 6.444 6.444 0 0 0 2.044 4.76c-.76 1.408-.98 3.099-.639 4.81l3.13-.902c-.47-1.941-.655-3.679-.52-5.057zm10.85 2.077c-.92-2.624-3.415-4.367-6.39-4.44 1.315 1.017 2.535 2.948 3.26 5.343l3.13-.903zm-4.095 1.18C9.69 3.333 7.49 1.152 6.134 1.543c-.78.225-1.044 1.305-1.125 2.17-.12 1.232.055 2.881.49 4.676l5.271-1.524zm-1.23 9.829H6.71l2 2.087h1.33l-.5-2.087zm2.275 0H10.57l.5 2.087h3.08l-2.335-2.087zM23 20.348a.513.513 0 0 0-.5-.522H8.295l-6.15-6.412c-.09-.099-.235-.214-.405-.214-.165 0-.305.11-.395.204-.265.276-.265.558 0 .835l6.365 6.63H22.5c.275 0 .5-.234.5-.521zm-10.93 2.609H22.5l-.75-1.044h-9.93l.25 1.044zm-1.03 0-.25-1.044H9.25l-.75 1.044h2.54z" fill="#1B75E2" fill-rule="evenodd"/>
</svg>
