<svg width="14" height="14" viewBox="0 0 14 14" xmlns="http://www.w3.org/2000/svg">
    <path d="M7 1.167a3.327 3.327 0 0 1 3.323 3.323c0 .943-.398 1.821-1.07 2.442.62.275 1.187.664 1.675 1.153a5.521 5.521 0 0 1 1.628 3.928v.142a.678.678 0 0 1-1.356 0v-.142c0-2.315-1.884-4.2-4.2-4.2a4.205 4.205 0 0 0-4.2 4.2v.142a.678.678 0 1 1-1.356 0v-.142c0-1.483.579-2.88 1.628-3.928a5.552 5.552 0 0 1 1.676-1.153l-.104-.1a3.316 3.316 0 0 1-.967-2.342A3.327 3.327 0 0 1 7 1.167zm0 1.355A1.97 1.97 0 0 0 5.032 4.49 1.97 1.97 0 0 0 7 6.458 1.97 1.97 0 0 0 8.968 4.49 1.97 1.97 0 0 0 7 2.522z" fill="#FA5851" fill-rule="evenodd"/>
</svg>
