<svg width="24" height="24" xmlns="http://www.w3.org/2000/svg">
    <path d="M22.5 12.871h1c0 1.38-1.46 2.5-3.25 2.5-1.155 0-2.175-.465-2.75-1.17-.575.705-1.595 1.17-2.75 1.17s-2.175-.465-2.75-1.17c-.575.705-1.595 1.17-2.75 1.17s-2.175-.465-2.75-1.17c-.575.705-1.595 1.17-2.75 1.17-1.79 0-3.25-1.12-3.25-2.5h1c0 .815 1.03 1.5 2.25 1.5S6 13.686 6 12.871h1c0 .815 1.03 1.5 2.25 1.5s2.25-.685 2.25-1.5h1c0 .815 1.03 1.5 2.25 1.5s2.25-.685 2.25-1.5h1c0 .815 1.03 1.5 2.25 1.5s2.25-.685 2.25-1.5zm0 3.815h1c0 1.38-1.46 2.5-3.25 2.5-1.155 0-2.175-.465-2.75-1.17-.575.705-1.595 1.17-2.75 1.17s-2.175-.465-2.75-1.17c-.575.705-1.595 1.17-2.75 1.17s-2.175-.465-2.75-1.17c-.575.705-1.595 1.17-2.75 1.17-1.79 0-3.25-1.12-3.25-2.5h1c0 .814 1.03 1.5 2.25 1.5S6 17.5 6 16.686h1c0 .814 1.03 1.5 2.25 1.5s2.25-.686 2.25-1.5h1c0 .814 1.03 1.5 2.25 1.5S17 17.5 17 16.686h1c0 .814 1.03 1.5 2.25 1.5s2.25-.686 2.25-1.5zM11.5 11h-1V3.5a2.5 2.5 0 0 1 5 0h-1c0-.825-.675-1.5-1.5-1.5s-1.5.675-1.5 1.5V5h7V3.5a2.5 2.5 0 0 1 5 0h-1c0-.825-.675-1.5-1.5-1.5s-1.5.675-1.5 1.5V11h-1V9.5h-7V11zm0-2.5h7V6h-7v2.5zM20.25 22c-1.22 0-2.25-.686-2.25-1.5h-1c0 .814-1.03 1.5-2.25 1.5s-2.25-.686-2.25-1.5h-1c0 .814-1.03 1.5-2.25 1.5S7 21.314 7 20.5H6c0 .814-1.03 1.5-2.25 1.5s-2.25-.686-2.25-1.5h-1c0 1.38 1.46 2.5 3.25 2.5 1.155 0 2.175-.465 2.75-1.17.575.705 1.595 1.17 2.75 1.17s2.175-.465 2.75-1.17c.575.705 1.595 1.17 2.75 1.17s2.175-.465 2.75-1.17c.575.705 1.595 1.17 2.75 1.17 1.79 0 3.25-1.12 3.25-2.5h-1c0 .814-1.03 1.5-2.25 1.5z" fill="#1B75E2" fill-rule="evenodd"/>
</svg>
