<svg width="24" height="24" xmlns="http://www.w3.org/2000/svg">
    <path d="M23 2.046H13a.5.5 0 0 1-.5-.5v-1a.5.5 0 1 0-1 0v1a.5.5 0 0 1-.5.5H1a1 1 0 0 0-1 1v14a1 1 0 0 0 1 1h10a.5.5 0 0 1 .5.5v.718a1 1 0 0 1-.427.82l-3.95 2.765a.5.5 0 0 0 .574.82l3.377-2.365a.27.27 0 0 1 .426.222v.02a.5.5 0 1 0 1 0v-.02a.27.27 0 0 1 .426-.222l3.378 2.364a.5.5 0 0 0 .573-.82l-3.95-2.765a1 1 0 0 1-.427-.82v-.718a.5.5 0 0 1 .5-.5h10a1 1 0 0 0 1-1v-14a1 1 0 0 0-1-1zm-22 14v-12a1 1 0 0 1 1-1h20a1 1 0 0 1 1 1v12a1 1 0 0 1-1 1H2a1 1 0 0 1-1-1z" fill="#1B75E2" fill-rule="evenodd"/>
</svg>
