<svg width="24" height="24" xmlns="http://www.w3.org/2000/svg">
    <path d="M15.52 1.95a5.872 5.872 0 0 1 5.864 5.716l.002.148a5.532 5.532 0 0 1-1.634 4.061.57.57 0 0 1-.107.074l-.012.005.043.1c.137.343.214.706.228 1.074l.002.158-.003.088.137-.036a4.23 4.23 0 0 1 .465-.087l.157-.017.209-.014a2.588 2.588 0 0 1 2.282.984 1.683 1.683 0 0 1-.024 1.756 3.513 3.513 0 0 1-2.089 1.82l-.068.02.06.096a4.1 4.1 0 0 1 .17.316l.074.163.066.165c.346.808.26 1.735-.23 2.47a1.567 1.567 0 0 1-1.268.557 2.671 2.671 0 0 1-.44-.04 3.493 3.493 0 0 1-2.218-1.257l-.052-.067-.07.082a4.29 4.29 0 0 1-.237.244l-.126.115-.13.11a2.614 2.614 0 0 1-2.424.54 1.67 1.67 0 0 1-1.016-1.464 3.605 3.605 0 0 1 .21-1.93l.024-.057-1.852 1.74A6.28 6.28 0 0 1 7.55 21.25l-.185.006-.184.001a7.339 7.339 0 0 1-3.21-.761 6.621 6.621 0 0 1-3.08-8.224 5.965 5.965 0 0 1 1.224-1.942l.147-.15.142-.136.282-.236a53.233 53.233 0 0 1 6.509-4.825l.492-.307.53-.32 1.313-.828.158-.106.343-.217c1.437-.896 2.245-1.231 3.359-1.255l.13-.001zm2.028 9.221h-.05l-.093.006-.081.042a1.62 1.62 0 0 0-.785.987l-.025.098a3.067 3.067 0 0 0-.031 1.515.537.537 0 0 1-.226.544.53.53 0 0 1-.581 0 2.41 2.41 0 0 0-2.58-.088 1.527 1.527 0 0 0-.195.105c-.235.152-.295.282-.295.435.057.502.35.947.793 1.2.389.259.83.427 1.294.491a.523.523 0 0 1 .268.909 2.415 2.415 0 0 0-.812 2.19l.02.117c.06.396.19.546.369.616.495.1 1.008-.042 1.385-.385.327-.259.597-.582.795-.95a.524.524 0 0 1 .467-.276.53.53 0 0 1 .458.314 2.363 2.363 0 0 0 1.934 1.474c.405.074.593-.002.71-.146.227-.412.263-.9.103-1.342l-.04-.101a3.118 3.118 0 0 0-.726-1.12.53.53 0 0 1-.116-.558.51.51 0 0 1 .474-.328 2.43 2.43 0 0 0 2.21-1.434c.145-.257.175-.437.141-.608l-.03-.123c0-.008 0-.013.002-.011a1.64 1.64 0 0 0-1.354-.504 3.18 3.18 0 0 0-1.439.428.543.543 0 0 1-.587-.052.53.53 0 0 1-.167-.567c.31-.916.044-1.929-.678-2.578-.208-.215-.366-.292-.532-.3zM15.52 2.97c-.93 0-1.59.277-2.949 1.114l-.31.192-.164.106-1.315.835a57.503 57.503 0 0 0-4.548 3.06l-.415.313.03-.002a5.433 5.433 0 0 1 2.472.473l.178.084a5.07 5.07 0 0 1 2.376 6.33 4.453 4.453 0 0 1-2.506 2.566 4.19 4.19 0 0 1-3.38-.153 3.552 3.552 0 0 1-1.667-4.438 3.086 3.086 0 0 1 1.764-1.81 2.935 2.935 0 0 1 2.393.107 2.021 2.021 0 0 1 .964 2.546 1.81 1.81 0 0 1-1.031 1.053 1.717 1.717 0 0 1-1.345.038l-.099-.043a.523.523 0 1 1 .444-.94c.182.08.39.08.572-.001a.786.786 0 0 0 .44-.459.995.995 0 0 0-.45-1.25 1.921 1.921 0 0 0-1.549-.071c-.545.22-.971.66-1.175 1.214a2.5 2.5 0 0 0 1.152 3.124 3.157 3.157 0 0 0 2.536.116 3.4 3.4 0 0 0 1.943-1.976 4.004 4.004 0 0 0-1.855-5.01 4.346 4.346 0 0 0-4.594.454l-.229.188-.05.047a4.866 4.866 0 0 0-1.3 1.913 5.582 5.582 0 0 0 8.686 6.352l.123-.1.118-.103 2.063-1.96-.05-.03a2.613 2.613 0 0 1-1.258-2.018l-.008-.12a1.696 1.696 0 0 1 1.078-1.42 3.579 3.579 0 0 1 2.633-.296l.082.024.003-.118c.012-.247.046-.492.102-.732l.046-.178a2.601 2.601 0 0 1 1.641-1.865 1.671 1.671 0 0 1 1.684.586l.095.103.1.116.087.102.072-.076a4.498 4.498 0 0 0 1.19-3.008v-.16a4.82 4.82 0 0 0-4.82-4.819zm1.939 11.715a1.72 1.72 0 1 1-.1.003l.1-.003zm-.485 1.246a.673.673 0 1 0 .956.947.673.673 0 0 0-.956-.947z" fill="#1B75E2" fill-rule="evenodd"/>
</svg>
