<svg width="24" height="24" viewBox="0 0 24 24" xmlns="http://www.w3.org/2000/svg">
    <path d="M8.312 18.375A1.32 1.32 0 0 0 7 19.687a1.32 1.32 0 0 0 1.179 1.305l.133.007h12.376A1.32 1.32 0 0 0 22 19.687a1.32 1.32 0 0 0-1.179-1.305l-.133-.007H8.312zm-5-7.625A1.32 1.32 0 0 0 2 12.063a1.32 1.32 0 0 0 1.179 1.305l.133.007h17.376A1.32 1.32 0 0 0 22 12.063a1.32 1.32 0 0 0-1.179-1.306l-.133-.007H3.312zm17.376-7.625H8.312A1.32 1.32 0 0 0 7 4.439a1.32 1.32 0 0 0 1.179 1.305l.133.007h12.376A1.32 1.32 0 0 0 22 4.437a1.32 1.32 0 0 0-1.179-1.306l-.133-.006z" fill="#292A2C" fill-rule="evenodd"/>
</svg>
