<svg width="20" height="20" xmlns="http://www.w3.org/2000/svg">
    <path d="M17.716 14.059 14.425 12.6a.815.815 0 0 0-.823.104l-1.337.937c-.407.24-.9.278-1.338.104a48.354 48.354 0 0 1-4.525-4.685 1.262 1.262 0 0 1 .102-1.354l.926-1.25a.947.947 0 0 0 .103-.936L5.99 2.293a.926.926 0 0 0-.926-.625h-1.44A3.546 3.546 0 0 0 1.67 5c0 3.748 3.086 7.184 4.526 8.642 1.44 1.458 4.834 4.686 8.743 4.686 0 0 2.469.208 3.291-1.875 0-.104.103-.208.103-.416v-1.041a1.354 1.354 0 0 0-.617-.937z" fill="#FFF" fill-rule="evenodd"/>
</svg>
