<svg width="97" height="32" viewBox="0 0 97 32" xmlns="http://www.w3.org/2000/svg">
    <path d="m13.766 11.642-.559 3.344-5.064-5.991 6.74-4.02-.579 3.482c2.253.319 4.706 1.473 6.221 2.23l.638.298v-.1l1.296-7.822a5.367 5.367 0 0 0-.578-.318 17.83 17.83 0 0 0-7.378-2.17C8.003.059 1.243 3.502.666 10.588c-.24 3.125 1.196 5.394 3.43 6.887 3.03 1.771 8.234 2.806 8.234 2.806l.538-3.403 5.085 5.99-6.74 4.022.559-3.285c-4.128-.418-7.856-2.229-9.611-3.324l-1.436 8.5a27.355 27.355 0 0 0 8.853 2.368c6.44.498 13.22-2.508 13.778-9.634.26-3.105-.837-5.314-2.771-6.906-2.512-1.811-6.82-2.966-6.82-2.966zm26.997 18.053c-3.13 1.373-5.224 1.373-7.257 1.353-5.843-.02-9.033-3.105-9.013-8.658.02-6.07 4.426-12.181 11.983-12.141 4.128.02 7.378 2.289 7.358 6.389-.02 4.976-4.566 6.986-12.801 6.708.088.51.34.978.718 1.333.777.657 1.994 1.035 3.569 1.035 2.034 0 3.848-.298 6.46-1.552l-1.017 5.533zm-3.39-13.176c.02-.677-.637-1.294-1.774-1.294a3.867 3.867 0 0 0-3.908 3.145c4.227.06 5.683-.538 5.683-1.792v-.06zm30.966-5.733-2.014 10.51a12.975 12.975 0 0 0-.299 2.507c0 .936.4 1.792 1.496 1.792 1.774 0 3.37-2.19 4.127-5.952l1.695-8.857h6.939L76.554 30.73h-6.081l.319-3.025h-.08c-2.153 2.587-4.506 3.463-6.82 3.463-3.449-.02-5.024-2.09-5.004-5.533.006-1.279.147-2.553.419-3.802L61.4 10.786h6.94zM56.376 5.094l-1.117 5.692h4.068l-.997 5.195h-4.068l-1.156 5.514a15.36 15.36 0 0 0-.3 2.209c0 .896.36 1.592 1.616 1.592.498 0 1.575-.02 2.153-.159l-1.017 5.394c-.917.398-2.89.597-4.227.597-3.788-.02-5.643-1.851-5.623-4.518.02-1.238.16-2.471.419-3.682l1.396-6.967H45.09l1.017-5.175h2.433l.718-3.821 7.118-1.871zm40.138 5.414-1.815 6.687h-.897c-4.108 0-5.484 3.185-6.201 6.827l-1.276 6.728-6.96-.02 3.73-19.944h6.6l-.758 4.06h.12c1.475-2.567 3.528-4.398 6.28-4.378.393-.007.785.006 1.177.04z" fill="#E2231B" fill-rule="nonzero"/>
</svg>
