<svg width="50" height="50" xmlns="http://www.w3.org/2000/svg">
    <g fill="none" fill-rule="evenodd">
        <circle fill="#F7F7F7" cx="24.8" cy="24.8" r="24.8"/>
        <path d="m31.36 11.68-3.92-.16a5.76 5.76 0 0 0-5.76 5.68v3.68h-3.6a.24.24 0 0 0-.24.24v4.64a.4.4 0 0 0 .24.24h3.6v11.6c0 .16.16.24.32.24h4.72a.24.24 0 0 0 .24-.24V26h3.6c.16 0 .24-.08.32-.24l.56-4.56a.32.32 0 0 0-.08-.24h-4.4v-2.32a2.8 2.8 0 0 1 .48-1.76 1.44 1.44 0 0 1 1.12-.48h2.72c.16 0 .32-.08.32-.24V12a.24.24 0 0 0-.24-.32z" fill="#636363" fill-rule="nonzero"/>
    </g>
</svg>
