<svg width="28" height="28" xmlns="http://www.w3.org/2000/svg">
    <path d="m24.803 19.682-4.609-2.04a1.14 1.14 0 0 0-1.152.145l-1.872 1.312a2.137 2.137 0 0 1-1.872.146 67.696 67.696 0 0 1-6.336-6.56 1.767 1.767 0 0 1 .144-1.895l1.296-1.75c.278-.378.333-.88.144-1.311L8.386 3.21a1.296 1.296 0 0 0-1.296-.875H5.074A4.965 4.965 0 0 0 2.338 7c0 5.248 4.32 10.058 6.336 12.099 2.016 2.04 6.768 6.56 12.24 6.56 0 0 3.457.291 4.609-2.624 0-.146.144-.292.144-.583v-1.458a1.896 1.896 0 0 0-.864-1.312z" fill="#FFF" fill-rule="evenodd"/>
</svg>
