<svg width="50" height="50" xmlns="http://www.w3.org/2000/svg">
    <g fill="none" fill-rule="evenodd">
        <circle fill="#F7F7F7" cx="24.8" cy="24.8" r="24.8"/>
        <path d="M29.84 12.8H19.6a6.88 6.88 0 0 0-6.88 6.88v10.16a6.96 6.96 0 0 0 6.88 6.96h10.24a6.96 6.96 0 0 0 6.88-6.96V19.68a6.88 6.88 0 0 0-6.88-6.88zm4.4 17.04a4.48 4.48 0 0 1-4.4 4.48H19.6a4.48 4.48 0 0 1-4.4-4.48V19.68a4.48 4.48 0 0 1 4.4-4.48h10.24a4.48 4.48 0 0 1 4.4 4.48v10.16z" fill="#636363" fill-rule="nonzero"/>
        <path d="M24.72 19.2a5.6 5.6 0 1 0 0 11.2 5.6 5.6 0 0 0 0-11.2zm0 8.56a3.04 3.04 0 1 1 .002-6.08 3.04 3.04 0 0 1-.002 6.08zM30.96 16.8a1.68 1.68 0 1 0 .004 3.36 1.68 1.68 0 0 0-.004-3.36z" fill="#636363" fill-rule="nonzero"/>
    </g>
</svg>
