<svg width="99" height="30" xmlns="http://www.w3.org/2000/svg">
    <g fill="#FFF" fill-rule="evenodd">
        <path d="M28.385 12.833h-2.478c-1.81-5.465-6.609-9.518-12.54-9.062-4.84.372-9.105 3.424-9.105 9.052 0 5.019 3.429 8.03 6.97 8.03 2.173 0 3.87-1.214 4.22-3.16-.948 1.148-2.499 1.198-3.667 1.198-1.699 0-5.134-1.448-5.134-6.058 0-3.73 3.439-6.388 6.667-6.733 4.393-.47 8.294 2.311 9.798 6.694 1.563 4.553 1.98 6.553 2.906 9.222.367 1.06 1.248 1.758 2.363 1.758s1.995-.699 2.363-1.758c.926-2.67 1.342-4.669 2.905-9.222C35.157 8.41 39.058 5.63 43.451 6.1c3.229.345 6.668 3.002 6.668 6.733 0 4.61-3.436 6.058-5.134 6.058-1.169 0-2.72-.05-3.668-1.198.35 1.946 2.047 3.16 4.22 3.16 3.54 0 6.97-3.011 6.97-8.03 0-5.628-4.264-8.68-9.104-9.052-5.932-.456-10.73 3.597-12.54 9.062h-2.478zm0 14.95c-3.507 0-5.603-2.77-6.424-5.343-1.173-3.68-1.27-4.31-2.483-8.19-.966-3.091-3.344-4.56-5.602-4.49-2.092.067-3.333 1.95-3.333 3.087 0 .924.558 2.764 2.9 2.764 2.342 0 3.757-1.996 3.386-3.425.594.54 1.858 2.83 1.97 4.679.265 4.376-3.122 7.85-7.713 7.85-5.53 0-10.658-4.457-10.658-11.912C.428 6.915 4.498.455 13.614.108a15.705 15.705 0 0 1 14.77 8.476A15.704 15.704 0 0 1 43.155.108c9.116.347 13.188 6.807 13.188 12.695 0 7.455-5.13 11.911-10.659 11.911-4.59 0-7.977-3.473-7.713-7.849.112-1.849 1.377-4.138 1.97-4.679-.371 1.43 1.044 3.425 3.386 3.425 2.343 0 2.9-1.84 2.9-2.764 0-1.136-1.24-3.02-3.333-3.086-2.258-.072-4.636 1.398-5.602 4.488-1.212 3.881-1.31 4.512-2.483 8.19-.82 2.574-2.917 5.344-6.423 5.344zM60.245.973h4.722v8.01l3.652-8.01h4.733l-4.363 9.398 5.092 13.904h-4.734l-3.356-9.114-1.024 1.832.01 7.282h-4.732V.973M74.245 11.408c0-3.2 1.423-5.023 5.484-5.023h.368c3.968 0 5.472 1.822 5.472 5.079v8.002c0 3.35-1.622 5.105-5.472 5.105h-.368c-3.913 0-5.484-1.755-5.484-5.157v-8.006zm4.546-.555c0-.34.035-1.373 1.115-1.373s1.102 1.041 1.102 1.373v9.286c0 .596-.271 1.408-1.116 1.408-.835 0-1.1-.78-1.1-1.408v-9.286zM98.847 16.984c0 .904-.005 1.502-.005 2.487 0 3.35-1.622 5.106-5.472 5.106h-.367c-3.915 0-5.486-1.756-5.486-5.159v-8.006c0-3.2 1.424-5.023 5.486-5.023h.367c3.968 0 5.472 1.822 5.472 5.079 0 .391.005 1.395.005 1.738l-4.541-.005.017-2.354c0-.332-.063-1.363-1.144-1.363-1.08 0-1.074 1.022-1.074 1.363v9.289c0 .63.224 1.416 1.06 1.416.845 0 1.158-.82 1.158-1.416l-.017-3.156 4.54.004M88.4 29.087h9.4v-3.29h-9.4z"/>
    </g>
</svg>
