<svg width="50" height="50" xmlns="http://www.w3.org/2000/svg">
    <g fill="none" fill-rule="evenodd">
        <circle fill="#F7F7F7" cx="24.8" cy="24.8" r="24.8"/>
        <path d="M23.2 28.56a5.28 5.28 0 0 0 4.96 1.76 6.96 6.96 0 0 0 4.4-2.96 10.64 10.64 0 0 0 1.76-5.12 8.88 8.88 0 0 0-5.04-8.72c-3.68-1.6-8.88-.8-11.6 2.32a10.72 10.72 0 0 0-2.08 3.44 6.64 6.64 0 0 0 .08 4.8A6.24 6.24 0 0 0 16.96 26c.16.08 1.84 1.2 1.84 1.04 0-.16.4-1.28.56-1.84a.96.96 0 0 0-.16-.8 4.96 4.96 0 0 1-.8-4.24 6.56 6.56 0 0 1 2.88-3.68 6.4 6.4 0 0 1 6.64-.16c2.48 1.44 2.88 4.64 2.32 7.36a6.96 6.96 0 0 1-1.2 2.72 3.36 3.36 0 0 1-2.72 1.36 2.08 2.08 0 0 1-1.92-2.72l.88-3.36c.24-.96.48-1.92-.16-2.72a2.24 2.24 0 0 0-1.92-.8 2.96 2.96 0 0 0-2.4 2.72 6.4 6.4 0 0 0 .48 3.2l-1.76 7.04a10.8 10.8 0 0 0-.24 3.2l.16 2.4a.32.32 0 0 0 .56.16l1.2-1.92a10.16 10.16 0 0 0 1.36-3.2l.64-3.2z" fill="#636363" fill-rule="nonzero"/>
    </g>
</svg>
