<svg width="115" height="37" xmlns="http://www.w3.org/2000/svg">
    <path d="M.261 12.114C.95 3.591 9.001-.55 16.743.072a21.081 21.081 0 0 1 8.787 2.61c.237.113.467.24.688.382l-1.543 9.41v.12l-.76-.36c-1.805-.91-4.726-2.298-7.41-2.681l.689-4.19-8.027 4.836 6.032 7.206.665-4.022s5.13 1.389 8.122 3.567c2.304 1.916 3.61 4.573 3.301 8.308-.665 8.57-8.74 12.186-16.41 11.587A32.33 32.33 0 0 1 .332 33.996l1.71-10.222c2.09 1.316 6.531 3.495 11.447 3.998l-.665 3.95 8.027-4.836-6.056-7.206-.64 4.094s-6.2-1.245-9.809-3.376c-2.66-1.796-4.37-4.525-4.085-8.284zm80.602.24-2.398 12.64a15.755 15.755 0 0 0-.356 3.017c0 1.125.475 2.155 1.78 2.155 2.114 0 4.014-2.634 4.917-7.159l2.018-10.653h8.265l-4.441 23.989h-7.243l.38-3.64h-.096c-2.564 3.113-5.367 4.166-8.121 4.166-4.109-.024-5.985-2.513-5.962-6.655.008-1.538.175-3.07.5-4.573l2.493-13.287h8.264zM66.614 5.506l-1.33 6.848h4.845l-1.187 6.248h-4.845l-1.377 6.632a18.648 18.648 0 0 0-.357 2.657c0 1.078.428 1.916 1.924 1.916.594 0 1.876-.024 2.565-.192l-1.211 6.488c-1.093.48-3.444.719-5.035.719-4.512-.024-6.72-2.227-6.697-5.435.023-1.49.19-2.973.499-4.43l1.662-8.379h-2.897l1.21-6.224h2.898l.855-4.597 8.478-2.25zm-23.7 6.201c4.915.024 8.786 2.753 8.763 7.685-.024 5.986-5.439 8.404-15.247 8.069a2.88 2.88 0 0 0 .855 1.604c.926.79 2.375 1.245 4.251 1.245 2.422 0 4.583-.36 7.695-1.868l-1.212 6.656c-3.196 1.416-5.484 1.618-7.598 1.632h-.526c-.174 0-.347-.003-.52-.004-6.958-.024-10.758-3.735-10.734-10.415.023-7.302 5.272-14.652 14.272-14.604zm71.506.311-2.161 8.045h-1.069c-4.892 0-6.53 3.83-7.386 8.212l-1.52 8.092-8.288-.024 4.441-23.99h7.861l-.902 4.885h.142c1.757-3.089 4.204-5.291 7.48-5.267.468-.008.936.008 1.402.047zm-77.206 9.457c5.034.072 6.768-.646 6.768-2.154v-.072c.024-.814-.76-1.556-2.114-1.556-2.262-.063-4.235 1.54-4.654 3.782z" fill="#FFF" fill-rule="evenodd"/>
</svg>
