<svg width="75" height="30" xmlns="http://www.w3.org/2000/svg" xmlns:xlink="http://www.w3.org/1999/xlink">
    <defs>
        <path d="M24.946 3.138h49.44V.099h-49.44v3.039zm-24.858 0h9.851V.099H.088v3.039z" id="a"/>
    </defs>
    <g fill="none" fill-rule="evenodd">
        <path d="M17.494 7.85a.947.947 0 1 0 0-1.893.947.947 0 0 0 0 1.893M17.494 11.027a.947.947 0 1 0 0-1.893.947.947 0 0 0 0 1.893" fill="#FFF"/>
        <path d="M62.655 5.835v13.531l7.27-.03c5.385-.4 5.448-5.649 1.894-6.995 3.258-1.394 2.29-6.498-2.78-6.506h-6.384zm4.551 3.268v1.955l.672.03c.759-.035 1.288-.3 1.314-1.069.02-.672-.489-.977-1.528-.916h-.458zm0 4.774v2.277l.827.035c.934-.041 1.585-.35 1.616-1.245.025-.783-.601-1.139-1.879-1.067h-.564zm-19.732 5.489 4.704-13.531h5.407l4.826 13.531h-5.163l-.488-1.68-3.666-.03-.458 1.68-5.162.03zm6.415-4.887.947-4.154h.183l.916 4.123-2.046.03zm-7.759-4.056 1.344-3.452c-3.737-2.267-9.986-1.277-10.11 4.124.298 2.262 2.095 3.316 4.917 3.543 1.243.27.887 1.522-.763 1.497-1.028-.092-2.057-.632-3.085-1.375l-1.527 3.727c4.808 2.245 10.382 1.603 10.996-2.933.51-3.024-1.598-4.093-5.346-4.948-.56-.52-.387-.917.52-1.191.975-.097 1.998.29 3.054 1.008zM24.81 5.835l.03 13.561 4.765-.03.03-4.338 2.23 4.338h5.651l-3.085-4.612a3.108 3.108 0 0 0-.733-.672c1.917-.469 2.94-1.731 2.658-4.155-.225-2.604-2.145-3.785-4.887-4.062l-6.66-.03zm4.795 3.757.03 2.29c1.426.082 2.017-.325 1.956-1.221.01-.953-.754-1.085-1.986-1.07zM11.278 5.835h4.826l.03 8.522c.245 1.445 2.322 1.476 2.658 0l.061-8.492 4.857.03v8.828c.003 6.654-12.374 6.622-12.432-.183V5.835zm-11.19 0h10.311v4.327H7.73v9.206H2.758v-9.206H.088V5.835z" fill="#FFF"/>
        <g transform="translate(0 .902)">
            <mask id="b" fill="#fff">
                <use xlink:href="#a"/>
            </mask>
            <path d="M24.946 3.138h49.44V.099h-49.44v3.039zm-24.858 0h9.851V.099H.088v3.039z" fill="#FFF" mask="url(#b)"/>
        </g>
        <path d="m11.596.914.066-.026.052-.027.027-.065V.665l.092-.026.026-.04h.026l.053-.026-.026-.052-.027-.08V.377h-.052l-.027-.052-.144-.079V.18l.026-.027.053.027.065.065h.027l.052-.026.053-.066V.127l.026-.052h.093l.052.052.027.026.118-.052V.048l.053.027.079.026.04-.026.052.052.08.026.118.066.105-.04-.026-.026h.053l.118-.026v.026l.026.066h-.026l-.053.079v.078l.027.04.052.052.027.053h.092l.053.052.118.066.08.026.052.026.119.052-.027.053-.04.065-.026.053-.026.026h-.079l-.092-.026-.277-.092-.079.04-.066.052-.026-.026-.053-.027h-.092l-.08.027-.052.026-.052.052-.04.027-.026.091-.08.027-.092.052-.131.026-.093.053-.079.065-.118.079-.08.053-.052.026v-.053l.027-.026-.027-.052.027-.027.052-.026.092-.04.08-.052.052-.026.119-.026v-.053h-.093l-.079.027-.079.026h-.17l-.067-.026-.026-.027-.026-.091.026-.053V.914h.053zm9.866-.197L21.41.77l-.04.026-.079.026-.079.066-.066.052-.224.053-.105.091-.066-.039-.053.066-.052.026h-.119l-.053-.026-.079.052v-.026l-.092-.026-.118-.027-.027-.039-.079-.052-.118.026-.053.026h-.171l-.053.04-.079.052-.04-.026-.079.052h-.144l-.08-.026-.092-.026-.079-.066-.026-.052h-.053l-.066-.027-.079.118-.026-.039h-.053l-.092-.026-.079-.026-.053-.027-.066-.052-.026-.092h-.198l-.026.092-.079.026-.066-.052-.079-.092-.052-.105.026-.026-.026-.092h-.066l-.132.026-.092.04-.132-.066-.119-.079-.026-.026-.026-.092.052-.026-.052-.026-.053-.026L17.26.27h-.026l-.027.053-.118.052-.105-.026-.08.026-.118-.026-.092.026L16.47.35l-.224-.079-.053.027-.079.026-.066.052h-.197l-.08.04-.144.026-.08.052-.052.027-.066.052-.105.066-.066.052-.132.026-.145.079h-.026V.86l-.053.053-.092.052-.105.027-.172-.053-.197-.052-.08-.066-.118.066h-.171L13.94.86h-.052l-.092-.039L13.69.77h-.118l-.053.026-.026.065-.027.053V.94h.053l.079.053.066.091.026.053h.053l.079-.026h.145l.053.026v.026l-.053.026h-.198l-.052-.026-.053.053-.119-.027h-.079l-.066.027-.052.026.026.04.053.025h.092l-.092.027-.027.052-.052.026-.053-.026h-.119l-.052-.052H12.9l-.027-.027-.065-.026h-.053l.026-.04-.026-.025h-.145v.091l.04.027v.026l-.066.026-.053-.026-.053.026-.052-.026-.093-.026v-.092h-.079l-.026.04h-.237l-.027.025-.052.053-.08.052-.065.053-.053.04v.025h-.145l-.026.053-.026.026v.223l-.027.079.053.065.053-.026h.092l.079-.04h.04l-.04.04.092.079v.078l.026.066v.052h.053l.026.053-.026.026.026.066.066-.04.027.092-.093.026-.026.027h-.053l-.026.026.08.092-.027.052.052.026v.027l.027.052.066-.052.026.052-.053.026h-.092l-.079.04V2.75l-.053.026v.04h-.04l-.025-.04.026-.052-.053-.053v-.078l-.052-.04h-.066v.145l.066-.027.026.053-.053.052-.04.066.04.079.053.026.026.052.053-.105h.092v.053l.026.052.053.04.026-.066.066.026.053.066.053.052v.17l-.053.027h-.092v.026l.066.053v.065l.026.026v.053h.08l.065-.026v.026h.053l-.053.026.053.026v.027h.052l-.026.065v.053l-.053.052v.026l.053.053.079-.027h.29l.079-.026v.053l-.053.065h-.026l-.026.053.026.052-.066.026v.092l.066.026v-.026l.053-.026.052-.066v-.026h.145l.08-.078.039.026-.04.105h.066l.053.118.026-.027-.026-.052.118-.066.053.066.026.026-.026.026v.053l.026.026v.144l.027.053.145.052v.04l.052.026.053.026v.026h.066l.026-.052.053.026.079-.026.066-.026h.079l.026-.04h.053l.066.066v.026l.052.026.027-.052v-.066l.026-.026v-.026l-.026-.053.026-.052.04-.026v-.145l.026-.052v-.04l.053-.026.052.027h.053l.119-.027.079.027.066.04.052.025h.053l.026.053h.093l.026.052.052.066.172.052.026.053h.119l.079.052v.092h.066l.026.105.053-.026.052.026.053.026h.04l.026-.026h.053l.026.052h.119l.105-.052.053.026.065-.026.027.052.079-.026.04-.026h.078l.027-.026v-.053h.052l.027.026.026-.026.04-.052.026-.04.026-.026.053-.026.026-.053.066-.026.027-.026.026-.066.119-.026.026-.026h.053l.079.052.026.04h.066l.079.052.118.053v-.027l-.092-.052.026-.026.093.052v.053h.052l.08-.027h.065V4.35l.027-.026-.027-.04.027-.026.079.026.026-.052.066-.026.079-.053.092.079v.118l-.066.052h-.026l-.026.053-.053.026-.04.066-.026.052-.053.026.027.053.026.052.066.066v.026l-.066.105h.092l.027.066.079-.04.04-.052.078-.026.027-.053v-.144l.144-.026.027-.053v-.052l.026-.066v-.223l.053-.026.092.092.171-.066v.118l.08.026h.052l.145.053.079-.053.092-.078.132-.092.145-.026.197.052.053.026.395.092.172-.026.29-.092.131-.026.145-.053.369-.118.25.066h.08l.223-.066.264-.13.079-.027.052.157.172-.026v-.078l.092-.027.105-.092.092.066.106-.04.079.093.066-.027.197.027.08.026.065-.079.185.053-.027.078.093.118.079-.092.092-.052h.079l.026.118.092.026v-.026l.027-.118-.092-.026.026-.118-.026-.027-.08-.026-.026-.078.053-.118-.053-.053-.066.026H23.4l-.026-.078-.106-.053.053-.236.079-.026.026-.105h-.105l-.053-.197-.066-.118.027-.052-.053-.026-.026-.145.026-.026-.053-.052-.052-.105.131-.04.119.04.026-.145.027-.118.118-.052v-.053l-.026-.052-.119-.118h-.171l-.08.026-.223-.026-.066-.052.04-.027-.04-.144-.053-.052v-.092l-.026-.026.119-.053.026-.052-.119-.197-.052-.053-.027-.091-.197-.053V.796l-.145-.053V.665h-.198l-.026.052V.77h-.198l-.17-.027-.12.027-.052-.053-.106-.026v.026zM1.164 24.538v-2.226H.439v-.453H2.38v.453h-.723v2.226h-.493zm1.531-2.679h.494v1.451c0 .23.006.38.018.448a.44.44 0 0 0 .15.264c.08.067.189.1.326.1.14 0 .246-.032.317-.095a.377.377 0 0 0 .128-.23c.015-.092.022-.244.022-.456V21.86h.493v1.407c0 .322-.013.55-.04.682a.788.788 0 0 1-.147.336.755.755 0 0 1-.287.219c-.12.054-.277.08-.47.08-.234 0-.411-.029-.532-.088a.772.772 0 0 1-.423-.527 3.537 3.537 0 0 1-.049-.68V21.86zm.42-.153h.402v-.44h-.402v.44zm.716 0h.404v-.44H3.83v.44zm1.333 2.832V21.86h1.04c.26 0 .45.024.568.072a.576.576 0 0 1 .284.257.83.83 0 0 1 .107.422.76.76 0 0 1-.162.499c-.107.13-.269.213-.483.247.107.068.195.143.264.225.07.081.163.226.28.434l.299.523h-.59l-.356-.583a3.808 3.808 0 0 0-.26-.394.384.384 0 0 0-.149-.111.752.752 0 0 0-.248-.03h-.1v1.118h-.494zm.494-1.546h.365c.236 0 .384-.01.443-.033a.272.272 0 0 0 .139-.113.376.376 0 0 0 .05-.201.342.342 0 0 0-.066-.218.296.296 0 0 0-.186-.106 4.07 4.07 0 0 0-.36-.009h-.385v.68zm1.976 1.546V21.86h.493v1.19l.997-1.19h.663l-.92 1.044.97 1.635h-.638l-.671-1.257-.4.448v.81h-.494zm2.443 0h.493V21.86h-.493v2.68zm.019-2.832h.46v-.486h-.46v.486zm1.586 2.832V23.41l-.895-1.55h.578l.575 1.059.564-1.06h.568l-.898 1.555v1.124h-.492zm1.635 0V21.86h1.81v.453H13.81v.594h1.226v.451H13.81v.73h1.364v.451h-1.857zm4.996-.871.48-.052c.028.177.087.307.175.39a.503.503 0 0 0 .358.124c.158 0 .278-.037.358-.11a.34.34 0 0 0 .122-.26.257.257 0 0 0-.052-.16.39.39 0 0 0-.177-.117 5.359 5.359 0 0 0-.395-.117c-.264-.072-.45-.16-.556-.265a.726.726 0 0 1-.225-.54c0-.136.035-.263.106-.382a.683.683 0 0 1 .304-.272c.133-.061.293-.093.481-.093.307 0 .538.074.693.221a.817.817 0 0 1 .244.591l-.493.024c-.021-.138-.067-.237-.136-.297-.07-.06-.174-.09-.313-.09a.525.525 0 0 0-.336.096.2.2 0 0 0-.079.166c0 .064.025.118.074.163.062.057.213.117.453.179.24.062.417.126.532.193a.721.721 0 0 1 .27.272.86.86 0 0 1 .098.427.842.842 0 0 1-.117.43.716.716 0 0 1-.33.3 1.27 1.27 0 0 1-.532.098c-.308 0-.546-.078-.711-.235-.166-.156-.265-.385-.296-.684zm2.401.871V21.86h1.811v.453h-1.318v.594h1.226v.451h-1.226v.73h1.365v.451h-1.858zm2.917 0V23.41l-.894-1.55h.578l.575 1.059.563-1.06h.568l-.898 1.555v1.124h-.492zm3.525 0h-.537l-.213-.609h-.977l-.201.61h-.523l.951-2.68h.522l.978 2.68zm-.908-1.06-.337-.994-.33.994h.667zm1.17 1.06V21.86h.495v1.054h.966V21.86h.493v2.68h-.493v-1.172h-.966v1.171h-.494zm4.667 0h-.537l-.213-.609h-.977l-.201.61h-.523l.951-2.68h.522l.978 2.68zm-.908-1.06-.337-.994-.33.994h.667zm1.466 1.06v-2.226h-.725v-.453h1.942v.453h-.723v2.226h-.494zm6.456 0h-.537l-.213-.609h-.977l-.201.61h-.524l.952-2.68h.522l.978 2.68zm-.908-1.06-.337-.994-.33.994h.667zm2.733.075.477.166c-.073.293-.195.51-.365.652a.981.981 0 0 1-.65.213c-.324 0-.59-.122-.8-.365-.208-.243-.313-.575-.313-.996 0-.446.106-.793.316-1.04.21-.246.485-.37.828-.37.298 0 .541.097.728.291.111.114.194.279.25.494l-.488.127a.575.575 0 0 0-.181-.329.488.488 0 0 0-.334-.12.535.535 0 0 0-.441.214c-.113.142-.169.373-.169.692 0 .339.055.58.167.724.11.144.255.216.432.216a.468.468 0 0 0 .339-.138c.094-.09.162-.235.204-.43zm.901.985V21.86h1.811v.453h-1.318v.594h1.226v.451h-1.226v.73h1.365v.451h-1.858zm2.28 0V21.86h.48l1 1.79v-1.79h.46v2.68h-.496l-.985-1.748v1.747h-.458zm3.01 0v-2.226h-.724v-.453h1.941v.453h-.723v2.226h-.494zm3.485 0h-.537l-.213-.609h-.977l-.2.61h-.524l.951-2.68h.522l.978 2.68zm-.908-1.06-.337-.994-.33.994h.667zm1.183 1.06v-2.657h.493v2.206h1.226v.451h-1.719zm4.274 0h-.537l-.213-.609h-.976l-.202.61h-.523l.952-2.68h.521l.978 2.68zm-.908-1.06-.337-.994-.33.994h.667zm1.171 1.06V21.86h1.039c.261 0 .45.024.569.072a.576.576 0 0 1 .284.257.831.831 0 0 1 .106.422.76.76 0 0 1-.161.499c-.108.13-.27.213-.484.247.107.068.196.143.265.225.07.081.163.226.28.434l.299.523h-.59l-.357-.583a3.808 3.808 0 0 0-.26-.394.384.384 0 0 0-.148-.111.75.75 0 0 0-.249-.03h-.1v1.118h-.493zm.494-1.546h.365c.236 0 .384-.01.443-.033a.271.271 0 0 0 .138-.113.377.377 0 0 0 .05-.201.342.342 0 0 0-.066-.218.296.296 0 0 0-.185-.106 4.077 4.077 0 0 0-.36-.009h-.385v.68zm1.954 1.546h.493V21.86h-.493v2.68zm4.758-2.679h.976c.194 0 .338.009.433.027a.6.6 0 0 1 .255.11.664.664 0 0 1 .262.537c0 .126-.03.241-.092.346a.595.595 0 0 1-.25.236.642.642 0 0 1 .462.647.86.86 0 0 1-.077.355.706.706 0 0 1-.212.276.666.666 0 0 1-.33.127c-.083.01-.281.016-.596.018h-.831V21.86zm.493.446v.62h.323c.193 0 .312-.004.359-.01a.311.311 0 0 0 .199-.095.298.298 0 0 0 .072-.21c0-.083-.02-.15-.062-.202a.274.274 0 0 0-.186-.094 5.095 5.095 0 0 0-.421-.009h-.284zm0 1.065v.717h.457c.178 0 .29-.005.338-.017a.3.3 0 0 0 .18-.106.351.351 0 0 0 .069-.228.377.377 0 0 0-.054-.204.306.306 0 0 0-.154-.123c-.067-.026-.213-.039-.437-.039h-.399zm1.955 1.168h.493V21.86h-.493v2.68zm.018-2.832h.46v-.486h-.46v.486zm.946 2.832V21.86h1.039c.261 0 .45.024.569.072a.575.575 0 0 1 .284.257.83.83 0 0 1 .107.422.76.76 0 0 1-.162.499c-.107.13-.269.213-.483.247.106.068.195.143.264.225.07.081.163.226.28.434l.3.523h-.59l-.357-.583a3.808 3.808 0 0 0-.26-.394.384.384 0 0 0-.149-.111.752.752 0 0 0-.248-.03h-.1v1.118h-.494zm.494-1.546h.365c.236 0 .384-.01.443-.033a.272.272 0 0 0 .139-.113.376.376 0 0 0 .05-.201.342.342 0 0 0-.066-.218.296.296 0 0 0-.186-.106 4.07 4.07 0 0 0-.36-.009h-.385v.68zm1.983 1.546v-2.657H69v2.206h1.226v.451h-1.72zm2.056 0h.493V21.86h-.493v2.68zm.019-2.832h.46v-.486h-.46v.486zm2.081 1.847v-.451h1.063v1.067c-.103.11-.253.206-.45.29a1.52 1.52 0 0 1-.595.125c-.255 0-.478-.059-.668-.176a1.088 1.088 0 0 1-.428-.505 1.763 1.763 0 0 1-.144-.713c0-.28.054-.528.16-.745.107-.216.263-.383.469-.498.156-.09.351-.134.585-.134.303 0 .54.07.71.21.17.14.28.332.33.578l-.49.1a.574.574 0 0 0-.195-.311.55.55 0 0 0-.355-.114.64.64 0 0 0-.515.224c-.127.15-.19.373-.19.668 0 .317.064.556.193.715a.62.62 0 0 0 .506.239.79.79 0 0 0 .312-.067c.103-.044.192-.099.267-.162v-.34h-.565zm.313-2.37h.228a.605.605 0 0 1-.159.39.484.484 0 0 1-.361.141.481.481 0 0 1-.36-.141.607.607 0 0 1-.16-.39h.229a.292.292 0 0 0 .083.196c.048.045.117.067.208.067.091 0 .16-.022.208-.067a.295.295 0 0 0 .084-.196zm1.19 3.355h.493V21.86h-.493v2.68zm.018-2.832h.46v-.486h-.46v.486zM.271 29.014l.912-2.375h.339l.971 2.375h-.358l-.277-.72H.865l-.26.72H.271zm.685-.976h.806l-.249-.657a6.484 6.484 0 0 1-.168-.493c-.03.153-.073.304-.128.454l-.26.696zm1.682.213.296-.026a.65.65 0 0 0 .098.292c.051.076.131.138.239.185.108.047.23.07.364.07.12 0 .226-.018.317-.053a.443.443 0 0 0 .206-.147.34.34 0 0 0 .067-.203.307.307 0 0 0-.065-.195.477.477 0 0 0-.214-.14 4.186 4.186 0 0 0-.422-.116 2.17 2.17 0 0 1-.459-.148.643.643 0 0 1-.254-.221.544.544 0 0 1-.082-.296c0-.12.033-.232.101-.336a.634.634 0 0 1 .298-.238 1.14 1.14 0 0 1 .436-.08c.176 0 .331.028.466.085a.67.67 0 0 1 .31.25c.072.11.111.235.117.374l-.302.023a.487.487 0 0 0-.164-.34c-.094-.077-.231-.115-.414-.115-.19 0-.328.035-.416.104a.313.313 0 0 0-.13.252c0 .086.03.156.092.21.061.056.219.112.474.17.255.058.43.108.526.151.138.064.24.145.306.242.066.098.099.21.099.338a.645.645 0 0 1-.109.357.72.72 0 0 1-.312.261 1.09 1.09 0 0 1-.457.093c-.215 0-.395-.031-.54-.094a.756.756 0 0 1-.342-.282.798.798 0 0 1-.13-.427zm2.212 0 .297-.026a.652.652 0 0 0 .098.292c.051.076.13.138.238.185.108.047.23.07.365.07.12 0 .225-.018.317-.053a.443.443 0 0 0 .205-.147.34.34 0 0 0 .068-.203.306.306 0 0 0-.066-.195.477.477 0 0 0-.213-.14 4.186 4.186 0 0 0-.423-.116 2.17 2.17 0 0 1-.458-.148.643.643 0 0 1-.254-.221.544.544 0 0 1-.083-.296c0-.12.034-.232.102-.336a.633.633 0 0 1 .298-.238 1.14 1.14 0 0 1 .435-.08c.177 0 .331.028.466.085a.67.67 0 0 1 .31.25c.072.11.112.235.117.374l-.301.023a.487.487 0 0 0-.165-.34c-.093-.077-.231-.115-.413-.115-.19 0-.329.035-.416.104a.313.313 0 0 0-.13.252c0 .086.03.156.092.21.06.056.218.112.474.17.255.058.43.108.525.151.139.064.24.145.307.242a.645.645 0 0 1-.01.695.72.72 0 0 1-.312.261 1.09 1.09 0 0 1-.457.093c-.216 0-.396-.031-.54-.094a.755.755 0 0 1-.343-.282.799.799 0 0 1-.13-.427zm2.224-.394c0-.394.105-.703.317-.925a1.08 1.08 0 0 1 .82-.335c.219 0 .417.053.593.157.176.105.31.251.402.439.093.186.138.4.138.636 0 .241-.048.457-.145.647a.998.998 0 0 1-.413.432 1.18 1.18 0 0 1-.577.146c-.223 0-.423-.054-.599-.162a1.039 1.039 0 0 1-.4-.442 1.338 1.338 0 0 1-.136-.593zm.324.005c0 .286.077.511.23.676a.76.76 0 0 0 .58.247.756.756 0 0 0 .584-.25c.152-.165.229-.401.229-.707 0-.193-.033-.362-.098-.506a.754.754 0 0 0-.71-.455.802.802 0 0 0-.575.23c-.16.152-.24.408-.24.765zm4.046.32.314.079c-.066.257-.184.454-.355.59a.98.98 0 0 1-.628.203c-.256 0-.464-.052-.624-.156a.977.977 0 0 1-.367-.453 1.622 1.622 0 0 1-.125-.637c0-.247.047-.462.142-.646a.97.97 0 0 1 .403-.42c.174-.096.366-.143.576-.143.237 0 .437.06.599.181a.94.94 0 0 1 .338.51l-.309.073a.735.735 0 0 0-.24-.377.637.637 0 0 0-.395-.119.767.767 0 0 0-.457.131.69.69 0 0 0-.258.353c-.05.147-.075.3-.075.456 0 .202.03.378.088.529.059.15.15.263.275.338a.77.77 0 0 0 .403.111c.176 0 .325-.05.447-.152.122-.101.204-.252.248-.452zm.755.832h.314v-2.375h-.314v2.375zm.607 0 .912-2.375h.338l.972 2.375h-.358l-.277-.72H13.4l-.26.72h-.334zm.685-.976h.805l-.248-.657a6.484 6.484 0 0 1-.168-.493c-.03.153-.073.304-.128.454l-.261.696zm2.146.976V26.92h-.782v-.28h1.882v.28h-.786v2.094h-.314zm1.476 0h.314v-2.375h-.314v2.375zm.772-1.157c0-.394.106-.703.318-.925a1.08 1.08 0 0 1 .82-.335c.218 0 .416.053.592.157.176.105.31.251.403.439.092.186.138.4.138.636 0 .241-.048.457-.146.647a.998.998 0 0 1-.412.432 1.18 1.18 0 0 1-.577.146c-.224 0-.424-.054-.6-.162a1.039 1.039 0 0 1-.4-.442 1.34 1.34 0 0 1-.136-.593zm.324.005c0 .286.077.511.23.676a.76.76 0 0 0 .58.247.757.757 0 0 0 .584-.25c.153-.165.23-.401.23-.707 0-.193-.034-.362-.099-.506a.754.754 0 0 0-.71-.455.802.802 0 0 0-.574.23c-.16.152-.24.408-.24.765zm2.349 1.152v-2.375h.322l1.247 1.864V26.64h.302v2.375h-.323l-1.247-1.866v1.866h-.301zm3.225-1.157c0-.394.105-.703.317-.925a1.08 1.08 0 0 1 .82-.335c.219 0 .417.053.592.157.176.105.31.251.403.439.092.186.138.4.138.636 0 .241-.048.457-.145.647a.998.998 0 0 1-.413.432 1.18 1.18 0 0 1-.577.146c-.224 0-.423-.054-.6-.162a1.04 1.04 0 0 1-.4-.442 1.338 1.338 0 0 1-.135-.593zm.323.005c0 .286.077.511.231.676a.76.76 0 0 0 .58.247.756.756 0 0 0 .583-.25c.153-.165.23-.401.23-.707 0-.193-.034-.362-.099-.506a.754.754 0 0 0-.71-.455.802.802 0 0 0-.574.23c-.16.152-.24.408-.24.765zm2.368 1.152v-2.375h1.602v.28H26.79v.736h1.114v.28h-1.114v1.079h-.315zm3.477 0V26.92h-.783v-.28h1.882v.28h-.785v2.094h-.314zm2.98-2.375h.314v1.372c0 .239-.027.428-.081.569a.693.693 0 0 1-.293.342c-.14.088-.325.132-.554.132-.223 0-.405-.038-.546-.115a.653.653 0 0 1-.303-.333c-.06-.145-.09-.343-.09-.595V26.64h.313v1.37c0 .207.02.359.058.456a.438.438 0 0 0 .197.226c.094.053.208.08.343.08.231 0 .396-.053.494-.158.098-.104.147-.305.147-.603v-1.37zm.842 2.375v-2.375h1.053c.211 0 .372.022.482.064a.53.53 0 0 1 .264.226.676.676 0 0 1 .099.358c0 .169-.054.31-.164.426-.109.115-.277.189-.505.22.083.04.146.08.19.119.091.084.178.19.26.315l.413.647h-.395l-.314-.495a4.353 4.353 0 0 0-.227-.326.696.696 0 0 0-.16-.16.474.474 0 0 0-.142-.063.986.986 0 0 0-.176-.01h-.364v1.054h-.314zm.314-1.327h.675c.144 0 .256-.015.337-.044a.359.359 0 0 0 .185-.143.385.385 0 0 0 .063-.213.353.353 0 0 0-.122-.277c-.082-.072-.21-.108-.387-.108h-.751v.785zm2.063 1.327v-2.375h.315v1.178l1.179-1.178h.426l-.997.962 1.04 1.413H37.7l-.846-1.202-.388.379v.823h-.315zm2.28 0h.314v-2.375h-.314v2.375zm.76-.763.297-.026a.65.65 0 0 0 .098.292c.051.076.13.138.239.185.108.047.23.07.364.07.12 0 .226-.018.317-.053a.443.443 0 0 0 .206-.147.34.34 0 0 0 .067-.203.307.307 0 0 0-.065-.195.477.477 0 0 0-.214-.14 4.186 4.186 0 0 0-.423-.116 2.17 2.17 0 0 1-.458-.148.643.643 0 0 1-.254-.221.544.544 0 0 1-.083-.296c0-.12.034-.232.102-.336a.634.634 0 0 1 .298-.238 1.14 1.14 0 0 1 .436-.08c.176 0 .33.028.466.085a.67.67 0 0 1 .31.25c.072.11.111.235.117.374l-.302.023a.487.487 0 0 0-.164-.34c-.094-.077-.231-.115-.414-.115-.19 0-.328.035-.416.104a.313.313 0 0 0-.13.252c0 .086.03.156.092.21.061.056.219.112.474.17.255.058.43.108.526.151.138.064.24.145.306.242a.645.645 0 0 1-.01.695.72.72 0 0 1-.312.261 1.09 1.09 0 0 1-.457.093c-.215 0-.395-.031-.54-.094a.756.756 0 0 1-.342-.282.8.8 0 0 1-.13-.427zm2.33.763v-2.375h.314v.975h1.234v-.975h.314v2.375h-.314v-1.12h-1.234v1.12h-.315zm3.852 0V26.92h-.783v-.28h1.882v.28h-.785v2.094h-.314zm1.427 0v-2.375h1.052c.212 0 .373.022.483.064a.53.53 0 0 1 .264.226.677.677 0 0 1 .098.358c0 .169-.054.31-.163.426-.11.115-.278.189-.505.22.083.04.146.08.189.119.092.084.179.19.261.315l.413.647h-.395l-.314-.495a4.31 4.31 0 0 0-.228-.326.698.698 0 0 0-.159-.16.477.477 0 0 0-.143-.063.986.986 0 0 0-.175-.01h-.364v1.054h-.314zm.314-1.327h.675c.143 0 .256-.015.337-.044a.36.36 0 0 0 .184-.143.385.385 0 0 0 .063-.213.353.353 0 0 0-.122-.277c-.081-.072-.21-.108-.386-.108h-.751v.785zm1.815 1.327.912-2.375h.339l.971 2.375h-.358l-.277-.72h-.993l-.26.72h-.334zm.685-.976h.806l-.249-.657a6.484 6.484 0 0 1-.168-.493 3.01 3.01 0 0 1-.128.454l-.261.696zm2.22.976-.92-2.375h.341l.617 1.725c.05.138.092.268.125.389.037-.13.08-.26.128-.389l.641-1.725h.321l-.93 2.375h-.322zm1.542 0v-2.375h1.716v.28H53.69v.727h1.313v.279H53.69v.808h1.457v.28h-1.771zm2.192 0v-2.375h.315v2.094h1.169v.28h-1.484zm2.213 0 .912-2.375h.338l.972 2.375h-.358l-.277-.72h-.993l-.26.72h-.334zm.685-.976h.805l-.248-.657a6.437 6.437 0 0 1-.168-.493c-.03.153-.073.304-.128.454l-.261.696zm2.9.044v-.278l1.005-.002v.88a1.778 1.778 0 0 1-.478.28 1.423 1.423 0 0 1-1.14-.058.99.99 0 0 1-.433-.433 1.362 1.362 0 0 1-.145-.633c0-.231.048-.447.145-.647.096-.2.235-.35.417-.447.181-.097.39-.145.627-.145.171 0 .326.027.465.083a.765.765 0 0 1 .326.232c.08.1.14.23.18.39l-.283.077a.893.893 0 0 0-.133-.285.546.546 0 0 0-.227-.166.831.831 0 0 0-.327-.063.964.964 0 0 0-.372.066.696.696 0 0 0-.254.173.826.826 0 0 0-.15.235c-.06.146-.09.305-.09.477 0 .212.036.389.109.532a.7.7 0 0 0 .318.317c.14.07.287.104.444.104.136 0 .269-.027.398-.08.13-.051.228-.107.295-.167v-.442h-.698zm1.475.932v-2.375h1.716v.28h-1.402v.727h1.313v.279h-1.313v.808h1.458v.28H62.84zm2.202 0v-2.375h.323l1.247 1.864V26.64h.301v2.375h-.322l-1.247-1.866v1.866h-.302zm4.093-.833.315.08c-.066.257-.185.454-.356.59a.981.981 0 0 1-.628.203c-.256 0-.464-.052-.624-.156a.978.978 0 0 1-.366-.453 1.622 1.622 0 0 1-.125-.637c0-.247.046-.462.141-.646a.971.971 0 0 1 .404-.42c.174-.096.366-.143.575-.143.238 0 .437.06.6.181.161.121.274.29.338.51l-.31.073a.734.734 0 0 0-.24-.377.637.637 0 0 0-.395-.119.768.768 0 0 0-.457.131.691.691 0 0 0-.258.353c-.05.147-.075.3-.075.456 0 .202.03.378.088.529.06.15.15.263.275.338a.77.77 0 0 0 .404.111c.176 0 .324-.05.446-.152.123-.101.205-.252.248-.452zm.755.833h.314v-2.375h-.314v2.375zm.875 0v-2.375h1.716v.28H71.08v.727h1.313v.279H71.08v.808h1.458v.28h-1.772zm2.099-.763.296-.026a.65.65 0 0 0 .098.292c.052.076.131.138.24.185.107.047.228.07.363.07.12 0 .226-.018.318-.053a.443.443 0 0 0 .205-.147.34.34 0 0 0 .067-.203.307.307 0 0 0-.065-.195.477.477 0 0 0-.213-.14 4.186 4.186 0 0 0-.423-.116 2.167 2.167 0 0 1-.459-.148.643.643 0 0 1-.253-.221.544.544 0 0 1-.083-.296c0-.12.034-.232.101-.336a.634.634 0 0 1 .298-.238 1.14 1.14 0 0 1 .436-.08c.176 0 .331.028.466.085a.67.67 0 0 1 .31.25c.072.11.111.235.117.374l-.301.023a.487.487 0 0 0-.165-.34c-.094-.077-.231-.115-.414-.115-.19 0-.328.035-.415.104a.313.313 0 0 0-.13.252c0 .086.03.156.092.21.06.056.218.112.473.17.256.058.43.108.526.151.138.064.24.145.306.242.066.098.099.21.099.338a.645.645 0 0 1-.109.357.72.72 0 0 1-.311.261 1.09 1.09 0 0 1-.458.093c-.215 0-.395-.031-.54-.094a.756.756 0 0 1-.342-.282.798.798 0 0 1-.13-.427z" fill="#FFF"/>
    </g>
</svg>
