<svg width="30" height="30" xmlns="http://www.w3.org/2000/svg">
    <g fill="#5CC85C" fill-rule="nonzero">
        <path d="m21.25 18.083-2.667-1.166a.667.667 0 0 0-.666.083l-1.084.75a1.25 1.25 0 0 1-1.083.083 38.917 38.917 0 0 1-3.667-3.75A1 1 0 0 1 12.167 13l.75-1a.75.75 0 0 0 .083-.75l-1.25-2.583a.75.75 0 0 0-.75-.5H9.833a2.833 2.833 0 0 0-1.583 2.666c0 3 2.5 5.75 3.667 6.917 1.166 1.167 3.916 3.75 7.083 3.75 0 0 2 .167 2.667-1.5 0-.083.083-.167.083-.333v-.834a1.083 1.083 0 0 0-.5-.75z"/>
        <path d="m0 29.917 2.583-8.167A14.333 14.333 0 0 1 .75 14.583 14.583 14.583 0 1 1 8.083 27.25L0 29.917zm8.417-5.5L9 24.75a11.917 11.917 0 0 0 6.25 1.833 12 12 0 1 0-11.917-12 11.417 11.417 0 0 0 1.834 6.334l.25.5L4 25.833l4.417-1.416z"/>
    </g>
</svg>
