<svg width="38" height="39" viewBox="0 0 38 39" xmlns="http://www.w3.org/2000/svg">
    <g fill="none" fill-rule="evenodd">
        <path fill="#FFF" d="M1.966 9.496h34.069v27.473H1.966z"/>
        <path d="M37.017 35v.931a2.01 2.01 0 0 1-.59 1.427 2.01 2.01 0 0 1-1.243.582L35 37.95l-.885-.001.136-.004a2.896 2.896 0 0 0 1.703-.706l.152-.142c.513-.513.86-1.234.911-2.096zm-36.026.186a2.9 2.9 0 0 0 .847 1.854c.513.513 1.235.86 2.096.912l-.033-.004H3a2.01 2.01 0 0 1-1.426-.59 2.01 2.01 0 0 1-.583-1.243l-.008-.184v-.962zm36.026-23.69-.007-.205a2.973 2.973 0 0 0-.866-1.904 2.973 2.973 0 0 0-2.11-.874H3.966l-.217.008a2.9 2.9 0 0 0-1.855.847c-.513.513-.86 1.235-.911 2.096V3.992c0-.557.226-1.061.59-1.426a2.01 2.01 0 0 1 1.243-.583L3 1.975h32a2.01 2.01 0 0 1 1.426.59c.325.325.54.76.583 1.243l.008.184v7.504z" stroke="#00B7C8" stroke-width="1.966" fill="#00B7C8"/>
        <path d="m15.905 15.032 1.6 1.708 3.975-4.242c.234-.25.553-.39.885-.386 1.091.013 1.63 1.422.858 2.246l-4.89 5.22a1.18 1.18 0 0 1-1.743 0l-2.47-2.637a1.38 1.38 0 0 1-.025-1.834l.042-.047a1.179 1.179 0 0 1 1.768-.028" fill="#00B7C8"/>
        <g fill="#00B7C8" font-family="SourceSansPro-Black, Source Sans Pro" font-size="6.552" font-weight="800">
            <text transform="translate(1.966 21.27)">
                                    <tspan x="4.082" y="5.994">GÜVENLİ</tspan>
                                </text>
            <text transform="translate(1.966 21.27)">
                                    <tspan x="6.224" y="13.189">TURİZM</tspan>
                                </text>
        </g>
        <text font-family="SourceSansPro-Bold, Source Sans Pro" font-size="5.241" font-weight="bold" fill="#FFF" transform="translate(0 .992)">
                                <tspan x="10.407" y="6.303">ONAYLI</tspan>
                            </text>
    </g>
</svg>
