<svg width="20" height="20" xmlns="http://www.w3.org/2000/svg">
    <path d="M18.75 10.726h.833c0 1.15-1.216 2.083-2.708 2.083-.962 0-1.813-.387-2.292-.975-.478.588-1.329.975-2.291.975-.963 0-1.813-.387-2.292-.975-.479.588-1.33.975-2.292.975-.962 0-1.812-.387-2.291-.975-.48.588-1.33.975-2.292.975-1.492 0-2.708-.933-2.708-2.083h.833c0 .679.858 1.25 1.875 1.25S5 11.405 5 10.726h.833c0 .679.859 1.25 1.875 1.25 1.017 0 1.875-.571 1.875-1.25h.834c0 .679.858 1.25 1.875 1.25 1.016 0 1.875-.571 1.875-1.25H15c0 .679.858 1.25 1.875 1.25s1.875-.571 1.875-1.25zm0 3.179h.833c0 1.15-1.216 2.083-2.708 2.083-.962 0-1.813-.387-2.292-.975-.478.588-1.329.975-2.291.975-.963 0-1.813-.387-2.292-.975-.479.588-1.33.975-2.292.975-.962 0-1.812-.387-2.291-.975-.48.588-1.33.975-2.292.975-1.492 0-2.708-.933-2.708-2.083h.833c0 .678.858 1.25 1.875 1.25S5 14.583 5 13.905h.833c0 .678.859 1.25 1.875 1.25 1.017 0 1.875-.572 1.875-1.25h.834c0 .678.858 1.25 1.875 1.25 1.016 0 1.875-.572 1.875-1.25H15c0 .678.858 1.25 1.875 1.25s1.875-.572 1.875-1.25zM9.583 9.167H8.75v-6.25a2.084 2.084 0 0 1 4.167 0h-.834c0-.688-.563-1.25-1.25-1.25s-1.25.562-1.25 1.25v1.25h5.834v-1.25a2.084 2.084 0 0 1 4.166 0h-.833c0-.688-.563-1.25-1.25-1.25s-1.25.562-1.25 1.25v6.25h-.833v-1.25H9.583v1.25zm0-2.084h5.834V5H9.583v2.083zm7.292 11.25c-1.017 0-1.875-.57-1.875-1.25h-.833c0 .68-.859 1.25-1.875 1.25-1.017 0-1.875-.57-1.875-1.25h-.834c0 .68-.858 1.25-1.875 1.25-1.016 0-1.875-.57-1.875-1.25H5c0 .68-.858 1.25-1.875 1.25s-1.875-.57-1.875-1.25H.417c0 1.15 1.216 2.084 2.708 2.084.963 0 1.813-.388 2.292-.975.479.587 1.329.975 2.291.975.963 0 1.813-.388 2.292-.975.479.587 1.33.975 2.292.975.962 0 1.813-.388 2.291-.975.48.587 1.33.975 2.292.975 1.492 0 2.708-.934 2.708-2.084h-.833c0 .68-.858 1.25-1.875 1.25z" fill="#1B75E2" fill-rule="evenodd"/>
</svg>
