<svg width="20" height="20" xmlns="http://www.w3.org/2000/svg">
    <path d="M12.933 1.625a4.893 4.893 0 0 1 4.887 4.763l.001.124a4.61 4.61 0 0 1-1.361 3.384.474.474 0 0 1-.089.061l-.01.005.036.083c.114.286.178.588.19.895l.001.131-.003.074.115-.03c.128-.032.257-.056.388-.072l.13-.015.174-.011a2.157 2.157 0 0 1 1.902.82c.269.454.26 1.02-.02 1.463a2.928 2.928 0 0 1-1.74 1.517l-.057.017.05.08c.05.085.098.173.141.263l.062.135.055.138a2.168 2.168 0 0 1-.192 2.059c-.262.31-.653.482-1.057.464a2.226 2.226 0 0 1-.367-.034 2.911 2.911 0 0 1-1.847-1.048l-.043-.055-.06.068c-.062.07-.128.139-.197.204l-.104.095-.109.091c-.553.48-1.31.65-2.02.45a1.392 1.392 0 0 1-.846-1.22 3.005 3.005 0 0 1 .174-1.608l.02-.047-1.543 1.45a5.233 5.233 0 0 1-3.303 1.39l-.153.005-.154.001a6.116 6.116 0 0 1-2.675-.634 5.518 5.518 0 0 1-2.566-6.854 4.97 4.97 0 0 1 1.02-1.618l.122-.126.118-.112.235-.197a44.36 44.36 0 0 1 5.424-4.021l.41-.255.442-.268 1.094-.69.132-.087.286-.181c1.197-.747 1.87-1.026 2.799-1.046l.108-.001zm1.69 7.684h-.04l-.078.005-.069.035a1.35 1.35 0 0 0-.654.822l-.02.083a2.556 2.556 0 0 0-.027 1.262.447.447 0 0 1-.187.453.442.442 0 0 1-.485 0 2.009 2.009 0 0 0-2.15-.073 1.272 1.272 0 0 0-.163.088c-.195.126-.245.234-.245.362.048.419.292.79.66 1 .325.215.693.355 1.08.41a.436.436 0 0 1 .223.757 2.013 2.013 0 0 0-.677 1.825l.017.097c.05.33.157.455.307.513.412.084.84-.035 1.154-.32.272-.216.498-.486.663-.792a.437.437 0 0 1 .389-.23.442.442 0 0 1 .381.261 1.97 1.97 0 0 0 1.612 1.229c.337.062.495-.001.591-.122.19-.343.22-.75.086-1.118l-.033-.084a2.599 2.599 0 0 0-.604-.933.441.441 0 0 1-.097-.466.425.425 0 0 1 .395-.273 2.025 2.025 0 0 0 1.842-1.195c.12-.214.146-.364.117-.507l-.024-.102c-.001-.007-.002-.01 0-.01a1.367 1.367 0 0 0-1.128-.42 2.65 2.65 0 0 0-1.199.357.453.453 0 0 1-.49-.043.442.442 0 0 1-.138-.472 2.019 2.019 0 0 0-.566-2.149c-.173-.179-.305-.243-.442-.25zm-1.69-6.834c-.775 0-1.325.23-2.457.928l-.258.16-.137.088-1.096.696a47.919 47.919 0 0 0-3.79 2.55l-.345.261.024-.001a4.527 4.527 0 0 1 2.06.394l.148.07a4.225 4.225 0 0 1 1.98 5.276 3.711 3.711 0 0 1-2.088 2.138 3.492 3.492 0 0 1-2.816-.128 2.96 2.96 0 0 1-1.39-3.699A2.572 2.572 0 0 1 4.239 9.7a2.446 2.446 0 0 1 1.995.089 1.684 1.684 0 0 1 .803 2.122c-.15.402-.462.721-.86.877a1.431 1.431 0 0 1-1.12.032l-.082-.036a.436.436 0 1 1 .37-.784.594.594 0 0 0 .476 0 .655.655 0 0 0 .366-.382.829.829 0 0 0-.374-1.043 1.6 1.6 0 0 0-1.29-.059c-.455.184-.81.551-.98 1.012a2.083 2.083 0 0 0 .96 2.603 2.63 2.63 0 0 0 2.113.098 2.834 2.834 0 0 0 1.62-1.647 3.337 3.337 0 0 0-1.547-4.175 3.622 3.622 0 0 0-3.828.378l-.19.157-.042.039a4.055 4.055 0 0 0-1.085 1.594 4.651 4.651 0 0 0 7.24 5.294l.102-.085.099-.085 1.718-1.633-.04-.026c-.6-.36-.989-.984-1.05-1.68l-.006-.101c.052-.534.402-.993.898-1.183a2.982 2.982 0 0 1 2.194-.247l.069.02.002-.099c.01-.205.039-.41.085-.61l.039-.148a2.168 2.168 0 0 1 1.367-1.554 1.393 1.393 0 0 1 1.403.489l.08.086.083.096.072.085.06-.063c.63-.683.984-1.576.993-2.507l-.002-.133a4.016 4.016 0 0 0-4.016-4.016zm1.616 9.763a1.433 1.433 0 1 1-.082.002l.082-.002zm-.404 1.038a.56.56 0 1 0 .797.79.56.56 0 0 0-.797-.79z" fill="#1B75E2" fill-rule="evenodd"/>
</svg>
