<svg width="21" height="21" viewBox="0 0 21 21" xmlns="http://www.w3.org/2000/svg">
    <path d="M10.603 2.076a4.873 4.873 0 0 1 4.869 4.868 4.859 4.859 0 0 1-1.57 3.577c.91.403 1.74.973 2.456 1.689a8.087 8.087 0 0 1 2.383 5.754v.208a.993.993 0 1 1-1.986 0v-.208a6.16 6.16 0 0 0-6.152-6.152 6.16 6.16 0 0 0-6.151 6.152v.208a.993.993 0 0 1-1.986 0v-.208c0-2.173.847-4.218 2.383-5.754a8.132 8.132 0 0 1 2.455-1.689l-.152-.146a4.857 4.857 0 0 1-1.417-3.43 4.873 4.873 0 0 1 4.868-4.869zm0 1.986a2.886 2.886 0 0 0-2.882 2.882 2.886 2.886 0 0 0 2.882 2.882 2.886 2.886 0 0 0 2.883-2.882 2.886 2.886 0 0 0-2.883-2.882z" fill="#292A2C" fill-rule="evenodd"/>
</svg>
